<svg id="Component_110_1" data-name="Component 110 – 1" xmlns="http://www.w3.org/2000/svg" width="42" height="42" viewBox="0 0 42 42">
  <circle id="Ellipse_60" data-name="Ellipse 60" cx="21" cy="21" r="21" fill="#ebfeec"/>
  <g id="receipt" transform="translate(9 9)">
    <path id="Vector" d="M3.23,17.7a1.758,1.758,0,0,1,2.79.15L7.03,19.2a1.738,1.738,0,0,0,2.93,0l1.01-1.35a1.758,1.758,0,0,1,2.79-.15c1.78,1.9,3.23,1.27,3.23-1.39V5.04C17,1.01,16.06,0,12.28,0H4.72C.94,0,0,1.01,0,5.04V16.3C0,18.97,1.46,19.59,3.23,17.7Z" transform="translate(3.5 2)" fill="none" stroke="#11db25" stroke-linecap="round" stroke-linejoin="round" stroke-width="1.5"/>
    <path id="Vector-2" data-name="Vector" d="M0,0H8" transform="translate(8 7)" fill="none" stroke="#11db25" stroke-linecap="round" stroke-linejoin="round" stroke-width="1.5" opacity="0.4"/>
    <path id="Vector-3" data-name="Vector" d="M0,0H6" transform="translate(9 11)" fill="none" stroke="#11db25" stroke-linecap="round" stroke-linejoin="round" stroke-width="1.5" opacity="0.4"/>
    <path id="Vector-4" data-name="Vector" d="M0,0H24V24H0Z" fill="none" opacity="0"/>
  </g>
</svg>
