<svg id="Component_106_1" data-name="Component 106 – 1" xmlns="http://www.w3.org/2000/svg" width="42" height="42" viewBox="0 0 42 42">
  <circle id="Ellipse_60" data-name="Ellipse 60" cx="21" cy="21" r="21" fill="#ecfeff"/>
  <g id="calculator" transform="translate(9 9)">
    <path id="Vector" d="M7,20h4c5,0,7-2,7-7V7c0-5-2-7-7-7H7C2,0,0,2,0,7v6C0,18,2,20,7,20Z" transform="translate(3 2)" fill="none" stroke="#29c9d3" stroke-linecap="round" stroke-linejoin="round" stroke-width="1.5"/>
    <path id="Vector-2" data-name="Vector" d="M9,1.5v1A1.5,1.5,0,0,1,7.5,4h-6A1.5,1.5,0,0,1,0,2.5v-1A1.5,1.5,0,0,1,1.5,0h6A1.5,1.5,0,0,1,9,1.5Z" transform="translate(7.5 6.08)" fill="none" stroke="#29c9d3" stroke-linecap="round" stroke-linejoin="round" stroke-width="1.5"/>
    <path id="Vector-3" data-name="Vector" d="M.636.5H.648" transform="translate(7.5 13.5)" fill="none" stroke="#29c9d3" stroke-linecap="round" stroke-linejoin="round" stroke-width="1.5"/>
    <path id="Vector-4" data-name="Vector" d="M.636.5H.648" transform="translate(11.359 13.5)" fill="none" stroke="#29c9d3" stroke-linecap="round" stroke-linejoin="round" stroke-width="1.5"/>
    <path id="Vector-5" data-name="Vector" d="M.636.5H.648" transform="translate(15.218 13.5)" fill="none" stroke="#29c9d3" stroke-linecap="round" stroke-linejoin="round" stroke-width="1.5"/>
    <path id="Vector-6" data-name="Vector" d="M.636.5H.648" transform="translate(7.5 17)" fill="none" stroke="#29c9d3" stroke-linecap="round" stroke-linejoin="round" stroke-width="1.5"/>
    <path id="Vector-7" data-name="Vector" d="M.636.5H.648" transform="translate(11.359 17)" fill="none" stroke="#29c9d3" stroke-linecap="round" stroke-linejoin="round" stroke-width="1.5"/>
    <path id="Vector-8" data-name="Vector" d="M.636.5H.648" transform="translate(15.218 17)" fill="none" stroke="#29c9d3" stroke-linecap="round" stroke-linejoin="round" stroke-width="1.5"/>
    <path id="Vector-9" data-name="Vector" d="M0,0H24V24H0Z" transform="translate(24 24) rotate(180)" fill="none"/>
  </g>
</svg>
