<svg id="Component_113_1" data-name="Component 113 – 1" xmlns="http://www.w3.org/2000/svg" width="42" height="42" viewBox="0 0 42 42">
  <circle id="Ellipse_60" data-name="Ellipse 60" cx="21" cy="21" r="21" fill="#fdf0ed"/>
  <g id="card-send" transform="translate(9 9)">
    <path id="Vector" d="M0,0H12.5" transform="translate(2 8.5)" fill="none" stroke="#ef765d" stroke-linecap="round" stroke-linejoin="round" stroke-width="1.5"/>
    <path id="Vector-2" data-name="Vector" d="M0,0H2" transform="translate(6 16.5)" fill="none" stroke="#ef765d" stroke-linecap="round" stroke-linejoin="round" stroke-width="1.5" opacity="0.4"/>
    <path id="Vector-3" data-name="Vector" d="M0,0H4" transform="translate(10.5 16.5)" fill="none" stroke="#ef765d" stroke-linecap="round" stroke-linejoin="round" stroke-width="1.5" opacity="0.4"/>
    <path id="Vector-4" data-name="Vector" d="M20,10.53v2.08c0,3.51-.89,4.39-4.44,4.39H4.44C.89,17,0,16.12,0,12.61V4.39C0,.88.89,0,4.44,0H12.5" transform="translate(2 3.5)" fill="none" stroke="#ef765d" stroke-linecap="round" stroke-linejoin="round" stroke-width="1.5"/>
    <g id="Group_569" data-name="Group 569" opacity="0.4">
      <path id="Vector-5" data-name="Vector" d="M0,6V0L2,2" transform="translate(20 3.5)" fill="none" stroke="#ef765d" stroke-linecap="round" stroke-linejoin="round" stroke-width="1.5"/>
      <path id="Vector-6" data-name="Vector" d="M2,0,0,2" transform="translate(18 3.5)" fill="none" stroke="#ef765d" stroke-linecap="round" stroke-linejoin="round" stroke-width="1.5"/>
    </g>
    <path id="Vector-7" data-name="Vector" d="M0,0H24V24H0Z" fill="none" opacity="0"/>
  </g>
</svg>
