<svg id="Component_174_19" data-name="Component 174 – 19" xmlns="http://www.w3.org/2000/svg" width="18" height="18" viewBox="0 0 18 18">
  <g id="buliding_linear" data-name="buliding/linear">
    <g id="vuesax_linear_buliding" data-name="vuesax/linear/buliding">
      <g id="buliding">
        <path id="Vector" d="M0,0H15" transform="translate(1.5 16.5)" fill="#fdc627" stroke="#fcc626" stroke-linecap="round" stroke-linejoin="round" stroke-width="1.3"/>
        <path id="Vector-2" data-name="Vector" d="M10.5,0H3A2.682,2.682,0,0,0,0,3V15H13.5V3A2.682,2.682,0,0,0,10.5,0Z" transform="translate(2.25 1.5)" fill="none" stroke="#fcc626" stroke-linecap="round" stroke-linejoin="round" stroke-width="1.3"/>
        <path id="Vector-3" data-name="Vector" d="M0,0H2.25" transform="translate(5.25 12.375)" fill="none" stroke="#fcc626" stroke-linecap="round" stroke-linejoin="round" stroke-width="1.3"/>
        <path id="Vector-4" data-name="Vector" d="M0,0H2.25" transform="translate(10.5 12.375)" fill="none" stroke="#fcc626" stroke-linecap="round" stroke-linejoin="round" stroke-width="1.3"/>
        <path id="Vector-5" data-name="Vector" d="M0,0H2.25" transform="translate(5.25 9)" fill="none" stroke="#fcc626" stroke-linecap="round" stroke-linejoin="round" stroke-width="1.3"/>
        <path id="Vector-6" data-name="Vector" d="M0,0H2.25" transform="translate(10.5 9)" fill="none" stroke="#fcc626" stroke-linecap="round" stroke-linejoin="round" stroke-width="1.3"/>
        <path id="Vector-7" data-name="Vector" d="M0,0H2.25" transform="translate(5.25 5.625)" fill="none" stroke="#fcc626" stroke-linecap="round" stroke-linejoin="round" stroke-width="1.3"/>
        <path id="Vector-8" data-name="Vector" d="M0,0H2.25" transform="translate(10.5 5.625)" fill="none" stroke="#fcc626" stroke-linecap="round" stroke-linejoin="round" stroke-width="1.3"/>
        <path id="Vector-9" data-name="Vector" d="M0,0H18V18H0Z" fill="none" opacity="0"/>
      </g>
    </g>
  </g>
</svg>
