<svg id="Component_259_1" data-name="Component 259 – 1" xmlns="http://www.w3.org/2000/svg" width="30" height="37" viewBox="0 0 30 37">
  <g id="Component_195_1" data-name="Component 195 – 1">
    <path id="Rectangle_523" data-name="Rectangle 523" d="M0,0H11.5A18.5,18.5,0,0,1,30,18.5v0A18.5,18.5,0,0,1,11.5,37H0a0,0,0,0,1,0,0V0A0,0,0,0,1,0,0Z" fill="#425ef1"/>
    <g id="Group_8212" data-name="Group 8212" transform="translate(3.77 10)">
      <g id="vuesax_broken_arrow-up" data-name="vuesax/broken/arrow-up" transform="translate(5.717 17.152) rotate(-90)">
        <g id="arrow-up">
          <path id="Vector" d="M8.526,2.787,6.661,4.66a1.419,1.419,0,0,1-2,0L0,0" transform="translate(2.916 6.397)" fill="none" stroke="#fff" stroke-linecap="round" stroke-linejoin="round" stroke-width="1.5"/>
          <path id="Vector-2" data-name="Vector" d="M.743,0,0,.743" transform="translate(13.493 6.397)" fill="none" stroke="#fff" stroke-linecap="round" stroke-linejoin="round" stroke-width="1.5"/>
          <path id="Vector-3" data-name="Vector" d="M0,17.153H17.152V0H0Z" fill="none" opacity="0"/>
        </g>
      </g>
      <g id="vuesax_broken_arrow-up-2" data-name="vuesax/broken/arrow-up" transform="translate(0 17.152) rotate(-90)">
        <g id="arrow-up-2" data-name="arrow-up">
          <path id="Vector-4" data-name="Vector" d="M8.526,2.787,6.661,4.66a1.419,1.419,0,0,1-2,0L0,0" transform="translate(2.916 6.397)" fill="none" stroke="#fff" stroke-linecap="round" stroke-linejoin="round" stroke-width="1.5"/>
          <path id="Vector-5" data-name="Vector" d="M.743,0,0,.743" transform="translate(13.493 6.397)" fill="none" stroke="#fff" stroke-linecap="round" stroke-linejoin="round" stroke-width="1.5"/>
          <path id="Vector-6" data-name="Vector" d="M0,17.153H17.152V0H0Z" fill="none" opacity="0"/>
        </g>
      </g>
    </g>
  </g>
</svg>
