<?xml version="1.0" encoding="utf-8"?>
<!-- Generator: Adobe Illustrator 26.2.1, SVG Export Plug-In . SVG Version: 6.00 Build 0)  -->
<svg version="1.1" id="document-text_outline" xmlns="http://www.w3.org/2000/svg" xmlns:xlink="http://www.w3.org/1999/xlink"
	 x="0px" y="0px" viewBox="0 0 19.4 19.3" style="enable-background:new 0 0 19.4 19.3;" xml:space="preserve">
<style type="text/css">
	.st0{fill:#61BCA3;}
	.st1{opacity:0.4;fill:#5C7EEF;enable-background:new    ;}
	.st2{fill:#5C7EEF;}
	.st3{fill:none;}
	.st4{opacity:0.6;fill:#5C7EEF;enable-background:new    ;}
	.st5{fill:#32D0A5;}
	.st6{opacity:0.4;fill:#32D0A5;enable-background:new    ;}
	.st7{fill:#EBB414;}
	.st8{opacity:0.4;fill:#EBB414;enable-background:new    ;}
	.st9{clip-path:url(#SVGID_00000111896286045212001510000001622627865731468727_);}
	.st10{clip-path:url(#SVGID_00000158024025209351641240000012620312688798999946_);}
	.st11{opacity:0.4;}
	.st12{clip-path:url(#SVGID_00000087405708156810226160000004360684506136916659_);}
	.st13{fill:#FF0C00;}
	.st14{opacity:0.6;}
	.st15{clip-path:url(#SVGID_00000013165822434905880400000002274163680777937841_);}
	.st16{opacity:0.4;fill:#FF0C00;enable-background:new    ;}
	.st17{opacity:0.998;fill:#5C7EEF;enable-background:new    ;}
	.st18{clip-path:url(#SVGID_00000029016029117130647100000015544697040953635495_);}
	.st19{fill:#AEBBE9;}
</style>
<g>
	<path class="st0" d="M14.4,10.9c0.9,0,1.6-0.7,1.6-1.6c0-0.8-0.8-1.6-1.6-1.6c-0.9,0-1.6,0.7-1.6,1.6S13.5,10.9,14.4,10.9z
		 M14.4,8.9c0.2,0,0.4,0.2,0.4,0.4c0,0.2-0.1,0.4-0.4,0.4c-0.3,0-0.4-0.1-0.4-0.4S14.1,8.9,14.4,8.9z"/>
	<path class="st0" d="M17.6,5.3V4.3c0-3.2-1-4.1-4.3-4.3H4.3C1,0,0,1,0,4.3v5.1c0,3.3,1,4.3,4.3,4.3h2.2v2.8H4.3
		c-0.3,0-0.6,0.3-0.6,0.6s0.3,0.6,0.6,0.6h5.2c0.4,1.2,1.3,1.7,3,1.7h3.9c2.3,0,3.2-0.9,3.2-3.2l0-7.8C19.5,7.2,19.4,5.7,17.6,5.3z
		 M4.3,1.2l9.1,0c2.6,0.1,3.1,0.6,3.1,3.1v0.9c0,0,0,0-0.1,0h-4c-1.5,0-2.3,0.4-2.8,1.3c-0.3,0.5-0.4,1.2-0.4,2V9h-8V4.3
		C1.2,1.7,1.7,1.2,4.3,1.2z M1.2,10.2h8v2.3H4.3C2,12.5,1.3,12.1,1.2,10.2z M7.6,16.4v-2.8h1.6v2.5c0,0.1,0,0.2,0,0.3H7.6z
		 M18.2,8.3v7.8c0,1.6-0.3,2-2,2h-3.9c-1.6,0-2-0.3-2-2V8.3c0-0.6,0.1-1,0.2-1.3c0.3-0.5,0.8-0.6,1.8-0.6H17c0,0,0,0,0,0
		C17.9,6.5,18.3,6.8,18.2,8.3z"/>
	<path class="st0" d="M14.4,11.6c-1.4,0-2.6,1.2-2.6,2.6c0,1.4,1.2,2.6,2.6,2.6c1.4,0,2.6-1.2,2.6-2.6c0-0.7-0.3-1.3-0.9-2
		C15.7,11.9,15.1,11.6,14.4,11.6z M14.4,15.5c-0.8,0-1.4-0.6-1.4-1.4s0.6-1.4,1.4-1.4c0.3,0,0.6,0.1,0.9,0.3
		c0.3,0.3,0.5,0.7,0.5,1.1C15.8,14.9,15.1,15.5,14.4,15.5z"/>
</g>
</svg>
