<svg xmlns="http://www.w3.org/2000/svg" xmlns:xlink="http://www.w3.org/1999/xlink" width="48" height="48" viewBox="0 0 48 48">
  <defs>
    <filter id="Rectangle_4" x="0" y="0" width="48" height="48" filterUnits="userSpaceOnUse">
      <feOffset dy="2" input="SourceAlpha"/>
      <feGaussianBlur stdDeviation="2.5" result="blur"/>
      <feFlood flood-color="#314f7c" flood-opacity="0.173"/>
      <feComposite operator="in" in2="blur"/>
      <feComposite in="SourceGraphic"/>
    </filter>
  </defs>
  <g id="Component_178_1" data-name="Component 178 – 1" transform="translate(7.5 5.5)">
    <g transform="matrix(1, 0, 0, 1, -7.5, -5.5)" filter="url(#Rectangle_4)">
      <path id="Rectangle_4-2" data-name="Rectangle 4" d="M16.5,0A16.5,16.5,0,1,1,0,16.5,16.5,16.5,0,0,1,16.5,0Z" transform="translate(7.5 5.5)" fill="#eea535"/>
    </g>
    <g id="Group_8701" data-name="Group 8701" transform="translate(7.498 7.248)">
      <g id="cake_bulk" data-name="cake/bulk">
        <g id="vuesax_bulk_cake" data-name="vuesax/bulk/cake">
          <g id="cake">
            <path id="Vector" d="M13.532,2.283v.761H12.87a1.022,1.022,0,0,0-1.02,1.027V4.3A1.024,1.024,0,1,1,9.8,4.3V4.072a1.024,1.024,0,1,0-2.047,0V4.3A1.027,1.027,0,1,1,5.7,4.3V4.072a1.024,1.024,0,1,0-2.047,0V4.3a1.024,1.024,0,1,1-2.047,0V4.057a1.023,1.023,0,0,0-1-1.027H0V2.283A2.332,2.332,0,0,1,1.865.084,2.736,2.736,0,0,1,2.534,0H11a2.736,2.736,0,0,1,.67.084A2.332,2.332,0,0,1,13.532,2.283Z" transform="translate(2.367 7.611)" fill="#fff"/>
            <path id="Vector-2" data-name="Vector" d="M9.8,1.652V3.889a2.736,2.736,0,0,0-.67-.084H.67A2.736,2.736,0,0,0,0,3.889V1.652A1.752,1.752,0,0,1,1.842,0H7.961A1.752,1.752,0,0,1,9.8,1.652Z" transform="translate(4.232 3.806)" fill="#fff" opacity="0.4"/>
            <path id="Vector-3" data-name="Vector" d="M1.142.495V1.606H.556A2.179,2.179,0,0,0,0,1.674V.495A.544.544,0,0,1,.571,0,.544.544,0,0,1,1.142.495Z" transform="translate(5.518 2.207)" fill="#fff"/>
            <path id="Vector-4" data-name="Vector" d="M1.142.571V1.918a1.886,1.886,0,0,0-.556-.076H0V.571A.575.575,0,0,1,.571,0,.575.575,0,0,1,1.142.571Z" transform="translate(11.607 1.964)" fill="#fff"/>
            <path id="Vector-5" data-name="Vector" d="M1.142.624V2.283H0V.624A.6.6,0,0,1,.571,0,.6.6,0,0,1,1.142.624Z" transform="translate(8.562 1.522)" fill="#fff"/>
            <path id="Vector-6" data-name="Vector" d="M14.651,4.962h-.274V.015h-.662A1.022,1.022,0,0,0,12.7,1.043v.228a1.024,1.024,0,1,1-2.047,0V1.043a1.024,1.024,0,1,0-2.047,0v.228a1.027,1.027,0,1,1-2.055,0V1.043a1.024,1.024,0,1,0-2.047,0v.228a1.024,1.024,0,1,1-2.047,0V1.027A1.023,1.023,0,0,0,1.446,0h-.6V4.962H.571a.571.571,0,0,0,0,1.142h14.08a.571.571,0,0,0,0-1.142Z" transform="translate(1.522 10.64)" fill="#fff" opacity="0.4"/>
            <path id="Vector-7" data-name="Vector" d="M0,0H18.266V18.267H0Z" fill="none" opacity="0"/>
          </g>
        </g>
      </g>
    </g>
  </g>
</svg>
