<svg id="vuesax_bulk_sms-tracking" data-name="vuesax/bulk/sms-tracking" xmlns="http://www.w3.org/2000/svg" width="35.113" height="35.113" viewBox="0 0 35.113 35.113">
  <g id="sms-tracking">
    <path id="Vector" d="M0,0H35.113V35.113H0Z" fill="none" opacity="0"/>
    <path id="Vector-2" data-name="Vector" d="M7.315,0a7.315,7.315,0,1,0,7.315,7.315A7.309,7.309,0,0,0,7.315,0ZM4.331,4.331H7.315a.995.995,0,0,1,0,1.99H4.331a.995.995,0,0,1,0-1.99ZM10.3,10.3H4.316a.995.995,0,1,1,0-1.99H10.3a.995.995,0,0,1,0,1.99Z" transform="translate(1.463 19.02)" fill="#6182f0"/>
    <path id="Vector-3" data-name="Vector" d="M21.946,0H7.315C2.926,0,0,2.195,0,7.315v4.594a1.464,1.464,0,0,0,2.078,1.317,9.523,9.523,0,0,1,5.355-.658,9.567,9.567,0,0,1,7.74,7.462,9.667,9.667,0,0,1,.1,3.233,1.453,1.453,0,0,0,1.448,1.624h5.223c4.389,0,7.315-2.195,7.315-7.315V7.33C29.261,2.195,26.335,0,21.946,0Z" transform="translate(2.926 4.389)" fill="#6182f0" opacity="0.4"/>
    <g id="Group" transform="translate(9.14 10.599)">
      <path id="Vector-4" data-name="Vector" d="M8.417,6.768A5.439,5.439,0,0,1,4.993,5.612L.414,1.954A1.093,1.093,0,0,1,1.774.243L6.354,3.9a3.491,3.491,0,0,0,4.111,0L15.044.243A1.08,1.08,0,0,1,16.58.418,1.08,1.08,0,0,1,16.4,1.954L11.825,5.612A5.369,5.369,0,0,1,8.417,6.768Z" transform="translate(0 0)" fill="#6182f0"/>
    </g>
  </g>
</svg>
