<svg id="vuesax_bulk_message-remove" data-name="vuesax/bulk/message-remove" xmlns="http://www.w3.org/2000/svg" width="24" height="24" viewBox="0 0 24 24">
  <g id="message-remove">
    <path id="Vector" d="M0,0H24V24H0Z" fill="none" opacity="0"/>
    <path id="Vector-2" data-name="Vector" d="M20,5v6a5,5,0,0,1-1.38,3.63A5,5,0,0,1,15,16v2.13a1,1,0,0,1-1.55.84L9,16H6.88A3.594,3.594,0,0,0,7,15.07,3.984,3.984,0,0,0,5.97,12.4,3.944,3.944,0,0,0,3,11.07,4,4,0,0,0,.13,12.28,5.848,5.848,0,0,1,0,11V5A4.724,4.724,0,0,1,5,0H15A4.724,4.724,0,0,1,20,5Z" transform="translate(2 2.43)" fill="#ff0000" opacity="0.4"/>
    <g id="Group">
      <path id="Vector-3" data-name="Vector" d="M7.75,1.5h-7A.755.755,0,0,1,0,.75.755.755,0,0,1,.75,0h7A.755.755,0,0,1,8.5.75.755.755,0,0,1,7.75,1.5Z" transform="translate(7.75 9.75)" fill="#ff0000"/>
    </g>
    <path id="Vector-4" data-name="Vector" d="M6.97,1.33A3.944,3.944,0,0,0,4,0,4,4,0,0,0,0,4,3.921,3.921,0,0,0,.58,6.06a3.684,3.684,0,0,0,.76.91A3.921,3.921,0,0,0,4,8,3.97,3.97,0,0,0,7.42,6.06,3.921,3.921,0,0,0,8,4,3.984,3.984,0,0,0,6.97,1.33ZM5.6,5.58a.748.748,0,0,1-1.06,0l-.53-.53-.55.55a.748.748,0,0,1-1.06,0,.754.754,0,0,1,0-1.06l.55-.55-.53-.53A.75.75,0,0,1,3.48,2.4l.53.53.5-.5A.75.75,0,0,1,5.57,3.49l-.5.5.53.53A.754.754,0,0,1,5.6,5.58Z" transform="translate(1 13.5)" fill="#ff0000"/>
  </g>
</svg>
