<svg id="vuesax_bulk_message-add" data-name="vuesax/bulk/message-add" xmlns="http://www.w3.org/2000/svg" width="24" height="24" viewBox="0 0 24 24">
  <g id="message-add">
    <path id="Vector" d="M0,0H24V24H0Z" fill="none" opacity="0"/>
    <path id="Vector-2" data-name="Vector" d="M20,5v6a5,5,0,0,1-1.38,3.63A5,5,0,0,1,15,16v2.13a1,1,0,0,1-1.55.84L9,16H6.88A3.594,3.594,0,0,0,7,15.07,3.984,3.984,0,0,0,5.97,12.4,3.944,3.944,0,0,0,3,11.07,4,4,0,0,0,.13,12.28,5.848,5.848,0,0,1,0,11V5A4.724,4.724,0,0,1,5,0H15A4.724,4.724,0,0,1,20,5Z" transform="translate(2 2.43)" fill="#5c7eef" opacity="0.4"/>
    <g id="Group">
      <path id="Vector-3" data-name="Vector" d="M7.75,1.5h-7A.755.755,0,0,1,0,.75.755.755,0,0,1,.75,0h7A.755.755,0,0,1,8.5.75.755.755,0,0,1,7.75,1.5Z" transform="translate(7.75 9.75)" fill="#5c7eef"/>
    </g>
    <path id="Vector-4" data-name="Vector" d="M4.21.008a3.954,3.954,0,0,0-3.04,1.16,3.994,3.994,0,0,0,1.87,6.71,3.881,3.881,0,0,0,1.18.11,3.9,3.9,0,0,0,2.61-1.15,3.98,3.98,0,0,0,1.05-3.79,3.9,3.9,0,0,0-1.05-1.87A3.952,3.952,0,0,0,4.21.008Zm2.03,3.97a.751.751,0,0,1-.75.75H4.75v.78a.751.751,0,0,1-.75.75.755.755,0,0,1-.75-.75v-.78H2.5a.75.75,0,1,1,0-1.5h.75v-.71a.75.75,0,0,1,1.5,0v.71h.74A.749.749,0,0,1,6.24,3.978Z" transform="translate(1 13.502)" fill="#5c7eef"/>
  </g>
</svg>
