<svg id="Component_1176_1" data-name="Component 1176 – 1" xmlns="http://www.w3.org/2000/svg" width="24" height="24" viewBox="0 0 24 24">
  <g id="tag-user_bulk" data-name="tag-user/bulk">
    <g id="vuesax_bulk_tag-user" data-name="vuesax/bulk/tag-user">
      <g id="tag-user">
        <path id="Vector" d="M0,0H24V24H0Z" fill="none" opacity="0"/>
        <g id="Group">
          <path id="Vector-2" data-name="Vector" d="M2.03,3.9H1.88A1.951,1.951,0,1,1,3.9,1.95,1.923,1.923,0,0,1,2.03,3.9Z" transform="translate(10.04 5.05)" fill="#5c7eef"/>
          <path id="Vector-3" data-name="Vector" d="M1,.75A1.806,1.806,0,0,0,1,3.98a5.37,5.37,0,0,0,5.5,0A1.806,1.806,0,0,0,6.5.75,5.417,5.417,0,0,0,1,.75Z" transform="translate(8.253 11.21)" fill="#5c7eef"/>
        </g>
        <path id="Vector-4" data-name="Vector" d="M15,0H3A2.983,2.983,0,0,0,0,2.97V13.88a2.983,2.983,0,0,0,3,2.97h.76a2.988,2.988,0,0,1,2.12.87l1.71,1.69a2.022,2.022,0,0,0,2.83,0l1.71-1.69a3,3,0,0,1,2.12-.87H15a2.983,2.983,0,0,0,3-2.97V2.97A2.983,2.983,0,0,0,15,0ZM9,3.05a1.951,1.951,0,0,1,.07,3.9H8.92A1.945,1.945,0,0,1,7.04,5,1.968,1.968,0,0,1,9,3.05Zm2.75,10.14a5.37,5.37,0,0,1-5.5,0,1.806,1.806,0,0,1,0-3.23,5.37,5.37,0,0,1,5.5,0A1.806,1.806,0,0,1,11.75,13.19Z" transform="translate(3 2)" fill="#5c7eef" opacity="0.4"/>
      </g>
    </g>
  </g>
</svg>
