<svg id="Component_98_197" data-name="Component 98 - 197" xmlns="http://www.w3.org/2000/svg" width="25.832" height="25.832" viewBox="0 0 25.832 25.832">
<g id="book_bulk" data-name="book/bulk">
<g id="vuesax_bulk_book" data-name="vuesax/bulk/book">
<g id="book">
<path id="Vector" d="M10.763,2.839V20.093a1.086,1.086,0,0,1-.527-.118l-.043-.022a27.654,27.654,0,0,0-8.008-2.626l-.312-.043A2.212,2.212,0,0,1,0,15.152v-13A2.118,2.118,0,0,1,2.325.008a20.189,20.189,0,0,1,7.6,2.519l.269.161A1.128,1.128,0,0,0,10.763,2.839Z" transform="translate(2.153 2.866)" fill="#0064d7" opacity="0.4"/>
<path id="Vector-2" data-name="Vector" d="M10.763,2.15V15.141a2.212,2.212,0,0,1-1.873,2.131l-.355.043A27.4,27.4,0,0,0,.506,19.963.952.952,0,0,1,0,20.082V2.828a1.128,1.128,0,0,0,.57-.151l.183-.118A20.29,20.29,0,0,1,8.363.008h.065A2.12,2.12,0,0,1,10.763,2.15Z" transform="translate(12.916 2.876)" fill="#0064d7"/>
<path id="Vector-3" data-name="Vector" d="M3.229,1.614H.807A.813.813,0,0,1,0,.807.813.813,0,0,1,.807,0H3.229a.813.813,0,0,1,.807.807A.813.813,0,0,1,3.229,1.614Z" transform="translate(5.113 8.331)" fill="#0064d7"/>
<path id="Vector-4" data-name="Vector" d="M4.036,1.614H.807A.813.813,0,0,1,0,.807.813.813,0,0,1,.807,0H4.036a.813.813,0,0,1,.807.807A.813.813,0,0,1,4.036,1.614Z" transform="translate(5.113 11.56)" fill="#0064d7"/>
<path id="Vector-5" data-name="Vector" d="M0,0H25.832V25.832H0Z" fill="none" opacity="0"/>
</g>
</g>
</g>
</svg>