<svg id="vuesax_bulk_document-normal" data-name="vuesax/bulk/document-normal" xmlns="http://www.w3.org/2000/svg" width="24" height="24" viewBox="0 0 24 24">
  <g id="document-normal">
    <path id="Vector" d="M12.95,0H4.47A4.475,4.475,0,0,0,0,4.47v9.41a4.481,4.481,0,0,0,4.47,4.47h8.47a4.475,4.475,0,0,0,4.47-4.47V4.47A4.46,4.46,0,0,0,12.95,0Z" transform="translate(3.29 3.65)" fill="#5c7eef" opacity="0.4"/>
    <path id="Vector-2" data-name="Vector" d="M6.59,0H1.89A1.886,1.886,0,0,0,0,1.88v.94A1.878,1.878,0,0,0,1.88,4.7H6.59A1.878,1.878,0,0,0,8.47,2.82V1.88A1.871,1.871,0,0,0,6.59,0Z" transform="translate(7.76 2)" fill="#5c7eef"/>
    <path id="Vector-3" data-name="Vector" d="M0,0H24V24H0Z" fill="none" opacity="0"/>
  </g>
</svg>
