<svg xmlns="http://www.w3.org/2000/svg" width="17.733" height="23.024" viewBox="0 0 17.733 23.024">
<g id="Component_81_1" data-name="Component 81 - 1" transform="translate(0.5 0.5)">
<path id="Path_6396" data-name="Path 6396" d="M4.316,10.049c-.457.353-.19-1.325-.19-1.325s4.886-3.989,8-6.478a.652.652,0,0,1,1.006,0,95.208,95.208,0,0,1,7.426,6.677c-.071-.056.137.694,0,.591l.066.824c0,3.587.047,6.2.042,9.789a3.212,3.212,0,0,1-1.032,2.692,5.108,5.108,0,0,1-2.263.6,12.975,12.975,0,0,1-2.409.18c-.6,0-.779-.181-.779-.775,0-1.817,0-3.634,0-5.45A1.791,1.791,0,0,0,12.89,15.6a1.751,1.751,0,0,0-2.166,1.781c-.008,1.743,0,3.485,0,5.228,0,.1,0,.2,0,.306-.005.472-.2.672-.678.679-.593.008-1.186.006-1.78,0-.9-.006-.637.028-1.533-.029a2.992,2.992,0,0,1-2.783-3c-.007-3.6.37-6.476.37-10.073v-.445m11.035,9.568a2.72,2.72,0,0,0,.257-.138c1.58-1.117,1.376-2.891,2.261-4.613a8.693,8.693,0,0,0,1.215-5.595,1.233,1.233,0,0,0-.516-.972c-.9-.677-1.774-1.4-2.657-2.108-1.571-1.256-1.449-1.406-3.02-2.661-.14-.112-.251-.211-.452-.049C9.753,5.645,8.069,6.643,5.374,8.794a.567.567,0,0,0-.237.493C5.143,13.2,5.1,16.562,5.1,20.474a1.89,1.89,0,0,0,1.983,1.971c1.112,0,1.062-.015,2.175,0,.278,0,.338-.093.337-.352-.008-1.65-.015-3.3.006-4.95a2.85,2.85,0,0,1,5.7,0c.016.686.005,1.372.011,2.058,0,.124.024.247.041.413" transform="translate(-3.931 -1.685)" fill="#0064d7" stroke="rgba(0,0,0,0)" stroke-width="1"/>
<path id="Path_6397" data-name="Path 6397" d="M27.978,26.4c-.017-.166.012-.4.011-.523-.006-.686.005-1.346-.011-2.032-.035-1.479-.07-2.384-1.594-2.737-1.517-.008-1.875,1.059-1.895,2.551-.022,1.65-.008,3.7,0,5.354,0,.258-1.159.256-1.437.253-1.112-.015-2.225,0-3.337-.007a1.89,1.89,0,0,1-1.983-1.971c0-3.912-.006-9.088-.012-13a.567.567,0,0,1,.237-.493Q22,10.565,26.029,7.324c.2-.162.311-.064.452.049l4.714,3.766c.884.706,1.752,1.431,2.657,2.108a1.233,1.233,0,0,1,.516.972,11.767,11.767,0,0,1-1.259,6.567A18.794,18.794,0,0,1,28.3,26.114a2.825,2.825,0,0,1-.325.282" transform="translate(-17.72 -7.239)" fill="#99c1ef" stroke="rgba(0,0,0,0)" stroke-width="1"/>
</g>
</svg>