<svg id="user-edit_broken" data-name="user-edit/broken" xmlns="http://www.w3.org/2000/svg" width="24" height="24" viewBox="0 0 24 24">
  <g id="vuesax_broken_user-edit" data-name="vuesax/broken/user-edit">
    <g id="user-edit">
      <path id="Vector" d="M8.02,1.01A4.944,4.944,0,0,0,5,0a5,5,0,1,0,5,5" transform="translate(7 2)" fill="none" stroke="#a788c3" stroke-linecap="round" stroke-linejoin="round" stroke-width="1.5"/>
      <g id="Group">
        <path id="Vector-2" data-name="Vector" d="M4.039.573.5,4.113a1.232,1.232,0,0,0-.3.59l-.19,1.35a.635.635,0,0,0,.76.76l1.35-.19a1.189,1.189,0,0,0,.59-.3l3.54-3.54a1.365,1.365,0,0,0,0-2.22A1.36,1.36,0,0,0,4.039.573Z" transform="translate(15.171 15.167)" fill="none" stroke="#a788c3" stroke-linecap="round" stroke-linejoin="round" stroke-width="1.5"/>
        <path id="Vector-3" data-name="Vector" d="M0,0A3.185,3.185,0,0,0,2.22,2.22" transform="translate(18.7 16.25)" fill="none" stroke="#a788c3" stroke-linecap="round" stroke-linejoin="round" stroke-width="1.5"/>
      </g>
      <path id="Vector-4" data-name="Vector" d="M0,7C0,3.13,3.85,0,8.59,0a10.3,10.3,0,0,1,2.97.43" transform="translate(3.41 15)" fill="none" stroke="#a788c3" stroke-linecap="round" stroke-linejoin="round" stroke-width="1.5"/>
      <path id="Vector-5" data-name="Vector" d="M0,0H24V24H0Z" fill="none" opacity="0"/>
    </g>
  </g>
</svg>
