<svg id="Component_14_304" data-name="Component 14 – 304" xmlns="http://www.w3.org/2000/svg" width="144.298" height="11.427" viewBox="0 0 144.298 11.427">
  <path id="Path_67" data-name="Path 67" d="M31.557,50.134V61.15h-1.8l-5.429-8.215V61.15h-1.8V50.134h1.8l5.429,8.2v-8.2Z" transform="translate(-22.519 -49.913)" fill="#fff"/>
  <path id="Path_68" data-name="Path 68" d="M89.875,58.9H85.269l-.791,2.248H82.594l3.941-11.016h2.089L92.565,61.15h-1.9Zm-2.3-6.584-1.8,5.112h3.593Z" transform="translate(-71.83 -49.913)" fill="#fff"/>
  <path id="Path_69" data-name="Path 69" d="M144.611,50.222h7.676v1.472h-2.928v9.528h-1.8V51.694h-2.944Z" transform="translate(-122.736 -49.985)" fill="#fff"/>
  <path id="Path_70" data-name="Path 70" d="M204.6,56.411h-5.176v4.812h-1.8v-11h1.8v4.717H204.6V50.222h1.8v11h-1.8Z" transform="translate(-166.244 -49.985)" fill="#fff"/>
  <path id="Path_71" data-name="Path 71" d="M263.557,58.9h-4.606l-.791,2.248h-1.884l3.941-11.016h2.089l3.941,11.016h-1.9Zm-2.295-6.584-1.8,5.112h3.593Z" transform="translate(-214.393 -49.913)" fill="#fff"/>
  <path id="Path_72" data-name="Path 72" d="M330.512,50.134V61.15h-1.8l-5.429-8.215V61.15h-1.8V50.134h1.8l5.429,8.2v-8.2Z" transform="translate(-267.91 -49.913)" fill="#fff"/>
  <path id="Path_73" data-name="Path 73" d="M402.741,51.351a1.6,1.6,0,0,0-3.2-.095,3.159,3.159,0,0,0,1.155,2.105l3.641,3.688c.206-.285.4-.6.6-.95l1.013-1.694h1.187l-1.2,2.073q-.428.736-.855,1.33l2.31,2.327h-1.44l-1.5-1.535a4.831,4.831,0,0,1-3.8,1.725c-2.232,0-3.767-1.329-3.767-3.355a3.582,3.582,0,0,1,2.611-3.4,3.231,3.231,0,0,1-1.06-2.3c0-1.393,1.092-2.374,2.786-2.374a2.376,2.376,0,0,1,2.627,2.453Zm.981,6.505-3.53-3.577c-1.5.554-2.2,1.44-2.2,2.659a2.456,2.456,0,0,0,2.659,2.422A3.8,3.8,0,0,0,403.723,57.856Z" transform="translate(-329.809 -48.898)" fill="#fff"/>
  <path id="Path_74" data-name="Path 74" d="M487.518,50.134V61.15h-1.8l-5.429-8.215V61.15h-1.8V50.134h1.8l5.429,8.2v-8.2Z" transform="translate(-396.784 -49.913)" fill="#fff"/>
  <path id="Path_75" data-name="Path 75" d="M545.835,58.9h-4.606l-.791,2.248h-1.884L542.5,50.134h2.089l3.941,11.016h-1.9Zm-2.295-6.584-1.8,5.112h3.593Z" transform="translate(-446.095 -49.913)" fill="#fff"/>
  <path id="Path_76" data-name="Path 76" d="M600.57,50.222h7.677v1.472h-2.928v9.528h-1.8V51.694H600.57Z" transform="translate(-496.999 -49.985)" fill="#fff"/>
  <path id="Path_77" data-name="Path 77" d="M660.556,56.411H655.38v4.812h-1.8v-11h1.8v4.717h5.176V50.222h1.8v11h-1.8Z" transform="translate(-540.508 -49.985)" fill="#fff"/>
  <path id="Path_78" data-name="Path 78" d="M719.517,58.9h-4.606l-.792,2.248h-1.884l3.941-11.016h2.089l3.941,11.016h-1.9Zm-2.295-6.584-1.8,5.112h3.593Z" transform="translate(-588.658 -49.913)" fill="#fff"/>
  <path id="Path_79" data-name="Path 79" d="M786.472,50.134V61.15h-1.8l-5.429-8.215V61.15h-1.8V50.134h1.8l5.429,8.2v-8.2Z" transform="translate(-642.174 -49.913)" fill="#fff"/>
</svg>
