<svg id="receipt-edit_outline" data-name="receipt-edit/outline" xmlns="http://www.w3.org/2000/svg" width="21.531" height="21.531" viewBox="0 0 21.531 21.531">
  <g id="vuesax_outline_receipt-edit" data-name="vuesax/outline/receipt-edit">
    <g id="receipt-edit">
      <path id="Vector" d="M6.971,18.562a.663.663,0,0,1-.538-.269l-.906-1.211a.969.969,0,0,0-.709-.413A.96.96,0,0,0,4.064,17C2.763,18.391,1.776,18.275,1.3,18.1S0,17.288,0,15.3V5.194C0,1.211,1.148,0,4.907,0h6.773c3.759,0,4.907,1.211,4.907,5.194V9.016a.673.673,0,0,1-1.346,0V5.194c0-3.239-.565-3.849-3.562-3.849H4.907c-3,0-3.562.61-3.562,3.849V15.3c0,.942.233,1.462.449,1.543.161.063.6-.027,1.283-.754a2.321,2.321,0,0,1,1.812-.763,2.314,2.314,0,0,1,1.714.951l.915,1.211a.673.673,0,0,1-.135.942A.685.685,0,0,1,6.971,18.562Z" transform="translate(2.485 1.121)" fill="#ff7641"/>
      <path id="Vector-2" data-name="Vector" d="M7.85,1.346H.673A.678.678,0,0,1,0,.673.678.678,0,0,1,.673,0H7.85a.678.678,0,0,1,.673.673A.678.678,0,0,1,7.85,1.346Z" transform="translate(6.504 5.607)" fill="#ff7641"/>
      <path id="Vector-3" data-name="Vector" d="M6.056,1.346H.673A.678.678,0,0,1,0,.673.678.678,0,0,1,.673,0H6.056a.678.678,0,0,1,.673.673A.678.678,0,0,1,6.056,1.346Z" transform="translate(7.401 9.196)" fill="#ff7641"/>
      <path id="Vector-4" data-name="Vector" d="M1.254,7.472a1.261,1.261,0,0,1-.9-.359,1.276,1.276,0,0,1-.341-1.1L.186,4.8a1.777,1.777,0,0,1,.458-.915L3.82.707a2.137,2.137,0,0,1,1.31-.7,2.031,2.031,0,0,1,1.633.7,2.02,2.02,0,0,1,.7,1.633,2.207,2.207,0,0,1-.7,1.31L3.586,6.826a1.777,1.777,0,0,1-.915.458l-1.211.17A1.6,1.6,0,0,1,1.254,7.472ZM5.282,1.344H5.255a.941.941,0,0,0-.484.314L1.595,4.834a.341.341,0,0,0-.072.153L1.362,6.108l1.121-.162a.5.5,0,0,0,.152-.081L5.811,2.69a.977.977,0,0,0,.314-.484c.018-.179-.161-.395-.314-.547A.915.915,0,0,0,5.282,1.344Z" transform="translate(12.042 12.068)" fill="#ff7641"/>
      <path id="Vector-5" data-name="Vector" d="M2.662,3.344a.579.579,0,0,1-.179-.027A3.568,3.568,0,0,1,.025.859.681.681,0,0,1,.491.025a.668.668,0,0,1,.825.467A2.212,2.212,0,0,0,2.842,2.016a.677.677,0,0,1,.467.834A.67.67,0,0,1,2.662,3.344Z" transform="translate(15.209 13.029)" fill="#ff7641"/>
      <path id="Vector-6" data-name="Vector" d="M0,0H21.531V21.531H0Z" fill="none" opacity="0"/>
    </g>
  </g>
</svg>
