<svg id="vuesax_bold_more-2" data-name="vuesax/bold/more-2" xmlns="http://www.w3.org/2000/svg" width="22" height="22" viewBox="0 0 22 22">
  <g id="more-2">
    <path id="Vector" d="M12.77,0H5.229C1.953,0,0,1.953,0,5.229v7.533C0,16.047,1.953,18,5.229,18h7.533c3.276,0,5.229-1.953,5.229-5.229V5.229C18,1.953,16.046,0,12.77,0ZM5.679,12.879A1.179,1.179,0,1,1,6.858,11.7,1.183,1.183,0,0,1,5.679,12.879ZM9,7.479A1.179,1.179,0,1,1,10.178,6.3,1.183,1.183,0,0,1,9,7.479Zm3.321,5.4A1.179,1.179,0,1,1,13.5,11.7,1.183,1.183,0,0,1,12.32,12.879Z" transform="translate(2 2)" fill="#5c7eef" opacity="0.97"/>
    <path id="Vector-2" data-name="Vector" d="M0,0H22V22H0Z" transform="translate(22 22) rotate(180)" fill="none" opacity="0"/>
  </g>
</svg>
