<svg xmlns="http://www.w3.org/2000/svg" width="31" height="31" viewBox="0 0 31 31">
  <g id="Component_1180_1" data-name="Component 1180 – 1" transform="translate(0.5 0.5)">
    <g id="Group_13263" data-name="Group 13263" transform="translate(-769 -126)">
      <circle id="Ellipse_161" data-name="Ellipse 161" cx="15" cy="15" r="15" transform="translate(769 126)" fill="#f5f6f7" stroke="rgba(0,0,0,0)" stroke-width="1"/>
      <g id="message-add_bulk" data-name="message-add/bulk" transform="translate(775 132)">
        <g id="vuesax_bulk_message-add" data-name="vuesax/bulk/message-add">
          <g id="message-add">
            <path id="Vector" d="M0,0H17.75V17.75H0Z" fill="none" opacity="0"/>
            <path id="Vector-2" data-name="Vector" d="M14.791,3.7V8.135a3.7,3.7,0,0,1-1.021,2.685,3.7,3.7,0,0,1-2.677,1.013v1.575a.74.74,0,0,1-1.146.621l-3.291-2.2H5.088a2.658,2.658,0,0,0,.089-.688,2.946,2.946,0,0,0-.762-1.975,2.917,2.917,0,0,0-2.2-.984A2.954,2.954,0,0,0,.1,9.082,4.325,4.325,0,0,1,0,8.135V3.7A3.494,3.494,0,0,1,3.7,0h7.4A3.494,3.494,0,0,1,14.791,3.7Z" transform="translate(1.479 1.797)" fill="#8798ad" opacity="0.4"/>
            <g id="Group" transform="translate(5.732 7.211)">
              <path id="Vector-3" data-name="Vector" d="M5.732,1.109H.555A.559.559,0,0,1,0,.555.559.559,0,0,1,.555,0H5.732a.559.559,0,0,1,.555.555A.559.559,0,0,1,5.732,1.109Z" fill="#8798ad"/>
            </g>
            <path id="Vector-4" data-name="Vector" d="M3.114.006A2.924,2.924,0,0,0,.865.864,2.954,2.954,0,0,0,2.248,5.826a2.87,2.87,0,0,0,.873.081,2.883,2.883,0,0,0,1.93-.85,2.944,2.944,0,0,0,.777-2.8A2.883,2.883,0,0,0,5.051.871,2.923,2.923,0,0,0,3.114.006Zm1.5,2.936A.555.555,0,0,1,4.06,3.5H3.513v.577a.556.556,0,0,1-.555.555A.559.559,0,0,1,2.4,4.073V3.5H1.849a.555.555,0,1,1,0-1.109H2.4V1.862a.555.555,0,0,1,1.109,0v.525H4.06A.554.554,0,0,1,4.615,2.942Z" transform="translate(0.74 9.986)" fill="#8798ad"/>
          </g>
        </g>
      </g>
    </g>
  </g>
</svg>
