<svg id="Component_175_19" data-name="Component 175 – 19" xmlns="http://www.w3.org/2000/svg" xmlns:xlink="http://www.w3.org/1999/xlink" width="19.029" height="20.78" viewBox="0 0 19.029 20.78">
  <defs>
    <clipPath id="clip-path">
      <rect id="Rectangle_544" data-name="Rectangle 544" width="19.029" height="20.78" fill="#f57c20" stroke="#f4882d" stroke-width="0.2"/>
    </clipPath>
  </defs>
  <g id="Group_8266" data-name="Group 8266" clip-path="url(#clip-path)">
    <path id="Path_6821" data-name="Path 6821" d="M10.165,0a12.442,12.442,0,0,1,1.33.245,7.144,7.144,0,0,1,5.353,5.844,15.615,15.615,0,0,1,.126,2.2c0,.093,0,.186,0,.273a2.38,2.38,0,0,1,2.051,2.521c.006,1,0,2,0,3a1.726,1.726,0,0,1-1.634,1.885.335.335,0,0,0-.27.173,5.336,5.336,0,0,1-1.911,1.918,5.15,5.15,0,0,1-2.393.678c-.053,0-.106.008-.155.012a2.556,2.556,0,1,1-.013-1.046,3.918,3.918,0,0,0,3.3-1.667c-.171,0-.321,0-.47,0a.5.5,0,0,1-.567-.573q0-3.083,0-6.166a1.252,1.252,0,0,1,.048-.359.451.451,0,0,1,.482-.349c.154,0,.309,0,.45,0,.02-.029.034-.04.034-.051A7.138,7.138,0,0,0,14.9,3.862a6.1,6.1,0,0,0-5.66-2.808A6.217,6.217,0,0,0,3.409,6.491c-.09.679-.06,1.375-.086,2.1h.49a.5.5,0,0,1,.546.476,2.021,2.021,0,0,1,.011.283q0,3.053,0,6.106c0,.411-.166.582-.575.582-.636,0-1.272.016-1.906-.012A1.966,1.966,0,0,1,.018,14.134c-.027-1.183-.022-2.367,0-3.549a2.044,2.044,0,0,1,2.084-2c.06,0,.12,0,.216,0,0-.1,0-.184,0-.268a11.763,11.763,0,0,1,.129-2.364A7.241,7.241,0,0,1,6.9.536,6.6,6.6,0,0,1,9,.031.594.594,0,0,0,9.11,0ZM3.337,15V9.614H2.157a1.048,1.048,0,0,0-1.12,1.109c-.007,1.1-.005,2.2,0,3.3a.951.951,0,0,0,.839.966c.481.041.968.009,1.463.009m12.614.011h.974c.081,0,.162,0,.243-.006a.8.8,0,0,0,.83-.91q0-1.53,0-3.06a1.562,1.562,0,0,0-.334-1.019.961.961,0,0,0-.505-.367,8.663,8.663,0,0,0-1.208-.017Zm-4.279,3.246a1.514,1.514,0,1,0-3.028-.045A1.573,1.573,0,0,0,10.2,19.744a1.488,1.488,0,0,0,1.477-1.487" transform="translate(0 0.001)" fill="#f57c20" stroke="#f4882d" stroke-width="0.2"/>
  </g>
</svg>
