<svg id="timer-start_bulk" data-name="timer-start/bulk" xmlns="http://www.w3.org/2000/svg" width="26.365" height="26.365" viewBox="0 0 26.365 26.365">
  <g id="vuesax_bulk_timer-start" data-name="vuesax/bulk/timer-start">
    <g id="timer-start">
      <path id="Vector" d="M.824,7.141A.83.83,0,0,1,0,6.317V.824A.83.83,0,0,1,.824,0a.83.83,0,0,1,.824.824V6.317A.83.83,0,0,1,.824,7.141Z" transform="translate(12.359 7.964)" fill="#0379ff"/>
      <path id="Vector-2" data-name="Vector" d="M7.141,1.593H.791A.788.788,0,0,1,0,.8.8.8,0,0,1,.791,0h6.35a.788.788,0,0,1,.791.791A.8.8,0,0,1,7.141,1.593Z" transform="translate(9.217 2.197)" fill="#0379ff"/>
      <path id="Vector-3" data-name="Vector" d="M12.82,16.819v-3.23a2.05,2.05,0,0,1,2.23-2.23h3.23a2.488,2.488,0,0,1,.582.066,9.866,9.866,0,0,0,.187-1.9,9.528,9.528,0,1,0-5.778,8.755A2.34,2.34,0,0,1,12.82,16.819Z" transform="translate(3.658 5.119)" fill="#0379ff" opacity="0.4"/>
      <path id="Vector-4" data-name="Vector" d="M5.46,0H2.23A2.05,2.05,0,0,0,0,2.23V5.46A2.05,2.05,0,0,0,2.23,7.69H5.46A2.05,2.05,0,0,0,7.69,5.46V2.23A2.05,2.05,0,0,0,5.46,0ZM5.152,4.9l-1.3.747a1.545,1.545,0,0,1-.769.231.991.991,0,0,1-.505-.132,1.264,1.264,0,0,1-.549-1.153V3.1a1.264,1.264,0,0,1,.549-1.153,1.258,1.258,0,0,1,1.274.1l1.3.747a1.277,1.277,0,0,1,.725,1.055A1.255,1.255,0,0,1,5.152,4.9Z" transform="translate(16.478 16.478)" fill="#0379ff"/>
      <path id="Vector-5" data-name="Vector" d="M0,0H26.365V26.365H0Z" fill="none" opacity="0"/>
    </g>
  </g>
</svg>
