<svg id="vuesax_bulk_user-add" data-name="vuesax/bulk/user-add" xmlns="http://www.w3.org/2000/svg" width="24" height="24" viewBox="0 0 24 24">
  <g id="user-add">
    <path id="Vector" d="M0,0H24V24H0Z" fill="none" opacity="0"/>
    <path id="Vector-2" data-name="Vector" d="M18.18,7.5a.5.5,0,0,1-.5.5H.5A.5.5,0,0,1,0,7.5C0,3.36,4.08,0,9.09,0a10.514,10.514,0,0,1,2.95.41A4.022,4.022,0,0,0,11.09,3a3.921,3.921,0,0,0,.58,2.06,3.684,3.684,0,0,0,.76.91A3.921,3.921,0,0,0,15.09,7a3.963,3.963,0,0,0,2.85-1.2A5.97,5.97,0,0,1,18.18,7.5Z" transform="translate(2.91 14)" fill="#5c7eef" opacity="0.4"/>
    <path id="Vector-3" data-name="Vector" d="M6.97,1.33A3.944,3.944,0,0,0,4,0,3.994,3.994,0,0,0,0,4,3.921,3.921,0,0,0,.58,6.06a3.684,3.684,0,0,0,.76.91A3.921,3.921,0,0,0,4,8,3.97,3.97,0,0,0,7.42,6.06a3.734,3.734,0,0,0,.46-1.13A3.594,3.594,0,0,0,8,4,3.984,3.984,0,0,0,6.97,1.33ZM5.5,4.73H4.75v.78a.75.75,0,0,1-1.5,0V4.73H2.5a.75.75,0,0,1,0-1.5h.75V2.52a.75.75,0,0,1,1.5,0v.71H5.5a.75.75,0,0,1,0,1.5Z" transform="translate(14 13)" fill="#5c7eef"/>
    <path id="Vector-4" data-name="Vector" d="M10,5A5,5,0,1,1,5,0,5,5,0,0,1,10,5Z" transform="translate(7 2)" fill="#5c7eef"/>
  </g>
</svg>
