<svg xmlns="http://www.w3.org/2000/svg" xmlns:xlink="http://www.w3.org/1999/xlink" width="326.001" height="250.001" viewBox="0 0 326.001 250.001">
  <defs>
    <filter id="Union_1" x="0" y="0" width="326.001" height="250.001" filterUnits="userSpaceOnUse">
      <feOffset dy="24" input="SourceAlpha"/>
      <feGaussianBlur stdDeviation="15" result="blur"/>
      <feFlood flood-color="#959ea5" flood-opacity="0.102"/>
      <feComposite operator="in" in2="blur"/>
      <feComposite in="SourceGraphic"/>
    </filter>
    <filter id="Path_8680" x="57.061" y="106.493" width="125.469" height="66.022" filterUnits="userSpaceOnUse">
      <feOffset dy="3" input="SourceAlpha"/>
      <feGaussianBlur stdDeviation="3" result="blur-2"/>
      <feFlood flood-color="#a3f2f7"/>
      <feComposite operator="in" in2="blur-2"/>
      <feComposite in="SourceGraphic"/>
    </filter>
  </defs>
  <g id="box-1" transform="translate(-725.994 -215.205)">
    <g transform="matrix(1, 0, 0, 1, 725.99, 215.21)" filter="url(#Union_1)">
      <g id="Union_1-2" data-name="Union 1" transform="translate(45 21)" fill="#fff">
        <path d="M 216.0009155273438 159.5011138916016 L 19.99979209899902 159.5011138916016 C 17.36708641052246 159.5011138916016 14.81340980529785 158.9856109619141 12.40970420837402 157.9689331054688 C 10.08773326873779 156.9868469238281 8.002291679382324 155.5807495117188 6.211321353912354 153.7897796630859 C 4.420351028442383 151.9988098144531 3.014262676239014 149.9133758544922 2.032174587249756 147.5914001464844 C 1.015498042106628 145.1876678466797 0.4999980032444 142.6339874267578 0.4999980032444 140.0012817382812 L 0.4999980032444 34.61581420898438 L 0.4999980032444 18.99990272521973 C 0.4999980032444 16.50228500366211 0.9890862703323364 14.07960796356201 1.95364511013031 11.79916667938232 C 2.885409832000732 9.596284866333008 4.219409942626953 7.61778450012207 5.918586254119873 5.918578624725342 C 7.617762565612793 4.219402313232422 9.596292495727539 2.885402202606201 11.79917430877686 1.953637599945068 C 14.07961559295654 0.98907870054245 16.50229263305664 0.4999904930591583 18.99991035461426 0.4999904930591583 L 41.92829132080078 0.4999904930591583 C 44.06820297241211 0.4999904930591583 46.16520309448242 0.8620198965072632 48.16102600097656 1.575990438461304 C 50.08990859985352 2.266049385070801 51.8822021484375 3.268431663513184 53.48814392089844 4.555372714996338 C 56.70291137695312 7.131519794464111 58.99176406860352 10.74496078491211 59.93302917480469 14.73004913330078 L 60.02399826049805 15.11510848999023 L 60.41964340209961 15.11510848999023 L 216.0009155273438 15.11510848999023 C 218.6335906982422 15.11510848999023 221.187255859375 15.63063716888428 223.5910034179688 16.64740180969238 C 225.9129333496094 17.62957954406738 227.9983825683594 19.0357551574707 229.7893829345703 20.82687377929688 C 231.5803527832031 22.61796188354492 232.9864349365234 24.7034912109375 233.9685211181641 27.02557945251465 C 234.9851989746094 29.42937278747559 235.5007019042969 31.98310852050781 235.5007019042969 34.61581420898438 L 235.5007019042969 140.0012817382812 C 235.5007019042969 142.6339874267578 234.9851989746094 145.1876678466797 233.9685211181641 147.5914001464844 C 232.9864349365234 149.9133758544922 231.5803833007812 151.9988098144531 229.7893829345703 153.7897796630859 C 227.9984130859375 155.5807495117188 225.9129638671875 156.9868469238281 223.5910034179688 157.9689331054688 C 221.1872863769531 158.9856109619141 218.6336212158203 159.5011138916016 216.0009155273438 159.5011138916016 Z" stroke="none"/>
        <path d="M 216.0009155273438 159.0011138916016 C 218.5663452148438 159.0011138916016 221.0545043945312 158.4989013671875 223.396240234375 157.5084381103516 C 225.6586151123047 156.5515441894531 227.6906127929688 155.1814575195312 229.4358520507812 153.4362182617188 C 231.1810607910156 151.6910247802734 232.5511474609375 149.6589965820312 233.5080261230469 147.3966064453125 C 234.4985046386719 145.0548706054688 235.0007019042969 142.5667266845703 235.0007019042969 140.0012817382812 L 235.0007019042969 34.61581420898438 C 235.0007019042969 32.05037307739258 234.4985046386719 29.56216621398926 233.5080261230469 27.2203426361084 C 232.5511169433594 24.95787239074707 231.1810302734375 22.92572593688965 229.4358215332031 21.1804027557373 C 227.6905822753906 19.43504905700684 225.6585540771484 18.06487274169922 223.3962097167969 17.10790252685547 C 221.054443359375 16.11737251281738 218.5663146972656 15.61510848999023 216.0009155273438 15.61510848999023 L 59.62832260131836 15.61510848999023 L 59.44643783569336 14.84499073028564 C 58.53067398071289 10.96796131134033 56.30358505249023 7.452255249023438 53.17546844482422 4.945549488067627 C 51.61291122436523 3.693372964859009 49.86914443969727 2.718108177185059 47.99261474609375 2.046784639358521 C 46.05099868774414 1.352167010307312 44.01064682006836 0.9999904632568359 41.92829132080078 0.9999904632568359 L 18.99991035461426 0.9999904632568359 C 14.1920862197876 0.9999904632568359 9.671938896179199 2.87234354019165 6.27214527130127 6.272137641906738 C 2.872350931167603 9.671931266784668 0.9999980330467224 14.19207859039307 0.9999980330467224 18.99990272521973 L 0.9999980330467224 140.0012817382812 C 0.9999980330467224 142.5667266845703 1.502203941345215 145.0548706054688 2.492674589157104 147.3966064453125 C 3.449556827545166 149.6589965820312 4.819644927978516 151.6909942626953 6.56488037109375 153.4362182617188 C 8.310086250305176 155.1814575195312 10.34211540222168 156.5515441894531 12.60446834564209 157.5084381103516 C 14.94623374938965 158.4989013671875 17.43437957763672 159.0011138916016 19.99979209899902 159.0011138916016 L 216.0009155273438 159.0011138916016 M 216.0009155273438 160.0011138916016 L 19.99979209899902 160.0011138916016 C 8.954115867614746 160.0011138916016 -1.989028078241972e-06 151.0469970703125 -1.989028078241972e-06 140.0012817382812 L -1.989028078241972e-06 18.99990272521973 C -1.989028078241972e-06 8.506814002990723 8.506792068481445 -9.507122740615159e-06 18.99991035461426 -9.507122740615159e-06 L 41.92829132080078 -9.507122740615159e-06 C 50.91249847412109 -9.507122740615159e-06 58.44034957885742 6.235461235046387 60.41964340209961 14.61510848999023 L 216.0009155273438 14.61510848999023 C 227.0466156005859 14.61510848999023 236.0007019042969 23.57010841369629 236.0007019042969 34.61581420898438 L 236.0007019042969 140.0012817382812 C 236.0007019042969 151.0469970703125 227.0466156005859 160.0011138916016 216.0009155273438 160.0011138916016 Z" stroke="none" fill="#f1f6fa"/>
      </g>
    </g>
    <g id="Component_100_1" data-name="Component 100 – 1" transform="translate(794.521 244.869)">
      <line id="Line_729" data-name="Line 729" x2="13.11" fill="none" stroke="#46a2d0" stroke-linecap="round" stroke-width="3"/>
    </g>
    <text id="_09" data-name="09" transform="translate(977.994 290.205)" font-size="24" font-family="Poppins-SemiBold, Poppins" font-weight="600"><tspan x="-15" y="0">09</tspan></text>
    <text id="Total_Saving" data-name="Total Saving" transform="translate(828.994 286.205)" fill="#707070" font-size="10" font-family="Poppins-SemiBold, Poppins" font-weight="600"><tspan x="0" y="0">Total Saving</tspan></text>
    <g id="Component_101_1" data-name="Component 101 – 1" transform="translate(785.994 266.205)">
      <path id="Path_8683" data-name="Path 8683" d="M16,0A16,16,0,1,1,0,16,16,16,0,0,1,16,0Z" fill="#dff4ff"/>
      <g id="clipboard-text" transform="translate(5.854 5.854)">
        <path id="Vector" d="M0,0H5.918" transform="translate(6.764 10.315)" fill="none" stroke="#46a2d0" stroke-linecap="round" stroke-linejoin="round" stroke-width="1.5" opacity="0.4"/>
        <path id="Vector-2" data-name="Vector" d="M0,0H3.7" transform="translate(6.764 13.697)" fill="none" stroke="#46a2d0" stroke-linecap="round" stroke-linejoin="round" stroke-width="1.5" opacity="0.4"/>
        <path id="Vector-3" data-name="Vector" d="M1.691,3.382H5.073c1.691,0,1.691-.845,1.691-1.691C6.764,0,5.918,0,5.073,0H1.691C.845,0,0,0,0,1.691S.845,3.382,1.691,3.382Z" transform="translate(6.764 1.691)" fill="none" stroke="#46a2d0" stroke-linecap="round" stroke-linejoin="round" stroke-width="1.5"/>
        <path id="Vector-4" data-name="Vector" d="M10.991,0c2.816.152,4.227,1.192,4.227,5.056v5.073c0,3.382-.845,5.073-5.073,5.073H5.073C.845,15.2,0,13.511,0,10.129V5.056C0,1.2,1.412.152,4.227,0" transform="translate(2.536 3.399)" fill="none" stroke="#46a2d0" stroke-linecap="round" stroke-linejoin="round" stroke-width="1.5"/>
        <path id="Vector-5" data-name="Vector" d="M0,0H20.292V20.292H0Z" fill="none" opacity="0"/>
      </g>
    </g>
    <line id="Line_730" data-name="Line 730" x2="205.911" transform="translate(786.038 312.734)" fill="none" stroke="#f1f6fa" stroke-width="1"/>
    <text id="_14_more_from_last_week" data-name="+14% more
from last week" transform="translate(986.994 356.205)" fill="#46a2d0" font-size="10" font-family="Poppins-Medium, Poppins" font-weight="500"><tspan x="-54" y="0">+14%</tspan><tspan y="0" xml:space="preserve" fill="#5c5c5c" font-family="Poppins-Regular, Poppins" font-weight="400"> more</tspan><tspan fill="#5c5c5c" font-family="Poppins-Regular, Poppins" font-weight="400"><tspan x="-72" y="17">from last week</tspan></tspan></text>
    <g id="Component_102_1" data-name="Component 102 – 1" transform="translate(793.995 329.207)">
      <g transform="matrix(1, 0, 0, 1, -68, -114)" filter="url(#Path_8680)">
        <path id="Path_8680-2" data-name="Path 8680" d="M-3252.833,13250.031s6.812,17.625,16.067,3.547,14.139-23.078,20.694-14.328,13.368,3.047,15.167,0c6.812-11.922,11.054-36.281,22.365-19.531,11.311,16.734,19.152,7.234,21.851,5.063,2.7-2.156,4.37-6.844,7.326-5.062" transform="translate(3320.83 -13100.02)" fill="none" stroke="#46a2d0" stroke-linecap="round" stroke-linejoin="round" stroke-width="3"/>
      </g>
    </g>
  </g>
</svg>
