<svg id="Component_132_1" data-name="Component 132 – 1" xmlns="http://www.w3.org/2000/svg" width="195.641" height="128.494" viewBox="0 0 195.641 128.494">
  <path id="Path_975" data-name="Path 975" d="M28.7,21.1C-9.3,43.261-9.3,78.792,28.7,100.6c37.994,22.163,99.911,22.163,137.905,0A70.349,70.349,0,0,0,185.8,84.77c17.087-20.778,10.74-46.485-19.2-63.673C128.606-1.066,66.69-1.066,28.7,21.1Zm99.559,57.343c-16.886,9.85-44.327,9.85-61.213,0s-16.886-25.681,0-35.18c16.886-9.85,44.327-9.85,61.213,0C145.141,52.759,145.141,68.59,128.255,78.441Z" transform="translate(0.504 11.268)" fill="#212121"/>
  <path id="Path_976" data-name="Path 976" d="M191.73,55.232C191.73,24.626,148.811,0,95.689,0,42.919,0,0,24.626,0,55.232v9.85c0,30.606,42.919,55.232,95.689,55.232s95.689-24.626,95.689-55.232v-9.85ZM95.689,84.08c-24.626,0-44.678-10.2-48.9-23.571,4.222-13.368,24.274-23.571,48.9-23.571s44.678,10.2,48.9,23.571C140.719,73.878,120.315,84.08,95.689,84.08Z" fill="#ecf8fb"/>
  <path id="Path_977" data-name="Path 977" d="M11.986,19.613h0c1.407-1.055,3.166-2.463,4.573-3.518h0c3.166-2.111,7.036-4.222,10.906-6.332h0C29.576,8.707,31.335,8,33.446,6.948h0c4.222-1.759,8.443-3.166,13.017-4.573C63-1.5,79.179,4.134,81.29,33.685,63,35.444,47.869,42.832,42.241,53.034c.7-27.44-23.922-35.883-38.7-25.681A59.632,59.632,0,0,1,11.986,19.613ZM40.833,57.255c-3.518-3.166-10.906-4.573-18.294-2.111C10.227,59.366-.327,71.327,3.191,86.455c8.443,10.2,22.163,18.294,39.05,23.922.7.352,1.407.352,2.111.7.352,0,1.055.352,1.407.352C40.13,89.621,58.071,75.9,71.44,79.067,55.961,75.2,43.648,67.106,40.833,57.255ZM165.722,56.9c-7.74-4.222-18.294-5.277-27.088-1.055,0,.352-.352.7-.352,1.407h0v.352c0,.352-.352.7-.352,1.055-3.518,9.5-15.479,17.59-31.31,20.756,14.776-1.407,26.737,13.368,21.108,33.773,22.163-5.629,39.753-15.479,49.6-28.144C178.738,74.845,175.572,62.18,165.722,56.9Zm-29.2-4.222c-.7-24.978,27.792-33.773,38.7-25.329a56.552,56.552,0,0,0-8.091-7.74h0c-1.407-1.055-3.166-2.463-4.573-3.518h0c-3.166-2.111-7.036-4.222-10.906-6.332h0c-2.111-1.055-3.87-1.759-5.981-2.814h0c-4.222-1.407-8.795-3.166-13.368-4.222-11.258-3.87-33.773,5.981-30.606,31.662C117.877,36.5,130.894,43.535,136.523,52.682ZM102.4,79.77Z" transform="translate(6.309 3.254)" fill="#ff1f00"/>
  <path id="Path_978" data-name="Path 978" d="M87.38.6C40.942.6,3.3,21,3.3,46.686c0,25.329,37.642,46.086,84.08,46.086s84.08-20.756,84.08-46.086C171.812,21,134.169.6,87.38.6Zm-.352,84.432c-32.014,0-58.047-15.479-58.047-34.476S55.014,16.079,87.028,16.079s58.047,15.479,58.047,34.476S119.042,85.032,87.028,85.032Z" transform="translate(8.309 1.512)" fill="#fdfeff"/>
  <path id="Path_979" data-name="Path 979" d="M153.752,41.46c-.352-1.407-.7-3.166-1.407-5.277a35.332,35.332,0,0,0-3.166-6.332c-2.814-4.573-7.388-9.147-13.368-13.368a75.8,75.8,0,0,0-21.46-10.2c-8.443-2.814-17.59-4.222-27.44-4.925s-20.4.352-30.958,2.463S34.492,9.8,24.994,16.131A45.476,45.476,0,0,0,12.329,28.092l-2.463,3.87L8.107,36.183c-.352,1.407-.7,3.166-1.055,4.573L6.7,44.978c0,6.684,2.463,12.313,5.981,17.238S20.772,70.66,25.7,73.826A85.865,85.865,0,0,0,56.3,85.435a125.3,125.3,0,0,0,15.479,2.111c2.463.352,4.925,0,7.388.352h7.388a106.256,106.256,0,0,0,27.088-4.573,85.981,85.981,0,0,0,21.46-9.5,46.6,46.6,0,0,0,13.368-12.665,26.639,26.639,0,0,0,3.166-6.332c.7-2.111,1.055-3.87,1.407-5.277a30.462,30.462,0,0,0,.352-3.87V45.33C154.1,46.034,153.752,44.275,153.752,41.46Zm-5.277,8.091c-.352,1.055-.7,2.463-1.055,3.87a19.288,19.288,0,0,1-2.814,5.277A40.3,40.3,0,0,1,133,70.308c-5.277,3.87-12.313,7.036-20.053,9.5A100.625,100.625,0,0,1,86.91,84.38c-2.463,0-4.925.352-7.036,0a51.956,51.956,0,0,1-7.388-.352,120.028,120.028,0,0,1-15.127-2.111c-10.2-2.111-20.4-5.629-29.2-11.609C23.938,67.142,19.717,63.624,16.9,59.4L14.44,56.94l-1.407-3.518L11.977,49.9V46.386h0c0-10.554,8.091-18.645,16.535-24.274A80.141,80.141,0,0,1,57.359,11.206a117.961,117.961,0,0,1,29.2-2.111,115.216,115.216,0,0,1,25.681,4.222,58.418,58.418,0,0,1,20.053,8.443c5.277,3.518,9.5,7.388,11.961,11.258a19.288,19.288,0,0,1,2.814,5.277,12.162,12.162,0,0,1,1.055,4.222,23.691,23.691,0,0,1,.352,3.518C148.827,46.386,148.475,47.441,148.475,49.552Z" transform="translate(16.871 2.865)" fill="#fff"/>
  <path id="Path_980" data-name="Path 980" d="M95.689,69.677C43.623,69.677,1.055,45.4,0,15.5V26.406C0,57.012,42.919,81.638,95.689,81.638s95.689-24.626,95.689-55.232V15.5C190.675,45.4,148.107,69.677,95.689,69.677Z" transform="translate(0 39.029)" fill="#bbd9dc"/>
  <path id="Path_981" data-name="Path 981" d="M109.8,44.383a14.438,14.438,0,0,0,0-20.4C100.656,14.832,83.418,8.5,63.365,8.5c-19.7,0-36.939,6.332-46.437,15.479-5.629,5.629-5.277,14.776,0,20.4h0a16.929,16.929,0,0,1-2.814-5.629c4.222-13.368,24.274-23.571,48.9-23.571s44.678,10.2,48.9,23.571c0,2.111-1.055,3.87-2.111,5.629Z" transform="translate(32.324 21.402)" fill="#d2e8ed"/>
</svg>
