<svg id="mouse-circle" xmlns="http://www.w3.org/2000/svg" width="24" height="24" viewBox="0 0 24 24">
  <path id="Vector" d="M0,0H24V24H0Z" fill="none" opacity="0"/>
  <path id="Vector-2" data-name="Vector" d="M7.95,4.823l-1.63.55a1.505,1.505,0,0,0-.96.96l-.55,1.63a1.516,1.516,0,0,1-2.89-.03L.07,1.983A1.519,1.519,0,0,1,1.97.073l5.96,1.85a1.526,1.526,0,0,1,.02,2.9Z" transform="translate(13.01 13.017)" fill="#46a2d0"/>
  <path id="Vector-3" data-name="Vector" d="M19,9.5A9.5,9.5,0,1,1,9.5,0,9.5,9.5,0,0,1,19,9.5Z" transform="translate(2 2)" fill="#46a2d0" opacity="0.4"/>
</svg>
