<svg xmlns="http://www.w3.org/2000/svg" xmlns:xlink="http://www.w3.org/1999/xlink" width="198.895" height="151.437" viewBox="0 0 198.895 151.437">
  <defs>
    <filter id="Union_3" x="68.889" y="22.656" width="130.006" height="112.657" filterUnits="userSpaceOnUse">
      <feOffset dx="8" dy="10" input="SourceAlpha"/>
      <feGaussianBlur stdDeviation="12" result="blur"/>
      <feFlood flood-opacity="0.09"/>
      <feComposite operator="in" in2="blur"/>
      <feComposite in="SourceGraphic"/>
    </filter>
    <filter id="Union_1" x="0" y="22.656" width="151.889" height="128.78" filterUnits="userSpaceOnUse">
      <feOffset dx="8" dy="10" input="SourceAlpha"/>
      <feGaussianBlur stdDeviation="12" result="blur-2"/>
      <feFlood flood-opacity="0.09"/>
      <feComposite operator="in" in2="blur-2"/>
      <feComposite in="SourceGraphic"/>
    </filter>
  </defs>
  <g id="Component_125_1" data-name="Component 125 – 1" transform="translate(28)">
    <g id="Component_2_2" data-name="Component 2 – 2" transform="translate(15.656)">
      <path id="Union_2" data-name="Union 2" d="M43.548,92.2V85.149a5.109,5.109,0,1,1,10.218,0V92.2a5.109,5.109,0,1,1-10.218,0Zm31.14-9-5.109-5.109a4.989,4.989,0,0,1,7.055-7.055l5.109,5.109A4.989,4.989,0,0,1,74.688,83.2ZM12.651,81.257a4.992,4.992,0,0,1,0-7.055l5.109-5.109a4.989,4.989,0,0,1,7.055,7.055l-5.109,5.109a4.992,4.992,0,0,1-7.055,0Zm9.731-33.33A26.275,26.275,0,1,1,48.657,74.2,26.32,26.32,0,0,1,22.382,47.927Zm10.7-.243A15.57,15.57,0,1,0,48.657,32.113,15.522,15.522,0,0,0,33.086,47.684ZM84.42,53.522a5.109,5.109,0,0,1,0-10.218h7.055a5.109,5.109,0,0,1,0,10.218ZM5.109,53.279a5.109,5.109,0,1,1,0-10.218h7.055a5.109,5.109,0,1,1,0,10.218ZM18.733,26.031l-5.109-5.109a4.989,4.989,0,0,1,7.055-7.055l5.109,5.109a4.989,4.989,0,0,1-7.055,7.055Zm51.576-.486a4.992,4.992,0,0,1,0-7.055l5.109-5.109a4.989,4.989,0,0,1,7.055,7.055l-5.109,5.109A5.624,5.624,0,0,1,73.654,27,4.379,4.379,0,0,1,70.309,25.545ZM43.061,12.164V5.109A5.138,5.138,0,0,1,48.17,0,4.989,4.989,0,0,1,53.28,5.109v7.055a5.139,5.139,0,0,1-5.109,5.109A5.307,5.307,0,0,1,43.061,12.164Z" fill="#eeac2a"/>
    </g>
    <g transform="matrix(1, 0, 0, 1, -28, 0)" filter="url(#Union_3)">
      <path id="Union_3-2" data-name="Union 3" d="M35.14,37.423a12.557,12.557,0,0,1-17.044-.2A12.424,12.424,0,0,1,12.582,38.5,12.728,12.728,0,0,1,10.1,13.322q0-.088,0-.176A13.078,13.078,0,0,1,23.1,0a12.871,12.871,0,0,1,8.2,2.941,10.256,10.256,0,0,1,5.8-1.791,10.419,10.419,0,0,1,10.3,9.2h.149A10.583,10.583,0,0,1,55.013,28.3q.008.215.008.432a11.863,11.863,0,0,1-11.8,11.924A11.694,11.694,0,0,1,35.14,37.423Z" transform="translate(96.89 48.66)" fill="#fff"/>
    </g>
    <g transform="matrix(1, 0, 0, 1, -28, 0)" filter="url(#Union_1)">
      <path id="Union_1-2" data-name="Union 1" d="M48.4,52.264a17.119,17.119,0,0,1-23.474-.284,16.917,16.917,0,0,1-7.594,1.791A17.547,17.547,0,0,1,0,36.014,17.659,17.659,0,0,1,13.9,18.6q0-.123,0-.246A18.141,18.141,0,0,1,31.819,0,17.578,17.578,0,0,1,43.113,4.107a13.989,13.989,0,0,1,7.992-2.5A14.423,14.423,0,0,1,65.292,14.447H65.5A14.572,14.572,0,0,1,79.889,29.193a14.888,14.888,0,0,1-4.122,10.331q.01.3.01.6A16.456,16.456,0,0,1,59.525,56.78,15.988,15.988,0,0,1,48.4,52.264Z" transform="translate(28 48.66)" fill="#fff"/>
    </g>
  </g>
</svg>
